<?xml version="1.0" standalone="no"?>
<!DOCTYPE svg PUBLIC "-//W3C//DTD SVG 20010904//EN"
 "http://www.w3.org/TR/2001/REC-SVG-20010904/DTD/svg10.dtd">
<svg version="1.0" xmlns="http://www.w3.org/2000/svg"
 width="1200.000000pt" height="1200.000000pt" viewBox="0 0 1200.000000 1200.000000"
 preserveAspectRatio="xMidYMid meet">
<metadata>
Created by potrace 1.14, written by Peter Selinger 2001-2017
</metadata>
<g transform="translate(0.000000,1200.000000) scale(0.100000,-0.100000)"
fill="#000000" stroke="none">
<path d="M5828 9657 c-76 -45 -138 -85 -138 -90 0 -13 233 -348 238 -342 8 8
213 448 210 450 -26 24 -116 65 -141 64 -21 0 -79 -28 -169 -82z"/>
<path d="M6161 9578 c-16 -34 -65 -141 -110 -237 -45 -96 -81 -179 -79 -186 6
-24 553 -813 559 -807 11 12 449 820 449 829 0 7 -752 451 -781 461 -5 2 -22
-25 -38 -60z"/>
<path d="M4910 9121 l-715 -418 -3 -99 -2 -99 430 -525 c237 -289 439 -533
448 -542 16 -17 40 31 422 847 223 476 407 865 410 865 3 0 12 -12 21 -26 l16
-26 13 31 c11 27 10 35 -5 58 l-18 26 -15 -28 -14 -28 -19 24 c-10 13 -69 99
-131 191 -62 92 -115 167 -118 167 -3 0 -327 -188 -720 -418z"/>
<path d="M6855 8817 c-99 -183 -204 -376 -233 -430 l-54 -99 -22 21 -23 21
-11 -25 c-10 -21 -9 -30 5 -51 l16 -26 15 27 c7 15 18 23 22 19 5 -5 207 -299
450 -654 243 -355 447 -651 454 -658 10 -10 46 49 174 285 l162 297 -2 579 -3
580 -383 223 c-210 123 -384 224 -385 224 -1 -1 -83 -150 -182 -333z"/>
<path d="M5530 8231 c-222 -474 -406 -861 -409 -861 -3 0 -12 10 -20 22 l-13
22 -15 -28 c-15 -28 -15 -28 -33 -10 -10 11 -205 248 -434 527 l-416 508 0
-913 1 -913 190 -110 c105 -60 195 -110 200 -110 6 0 113 220 239 488 126 269
231 492 235 495 3 3 13 -5 22 -17 l16 -24 14 27 c8 15 17 24 21 22 5 -3 122
-144 262 -315 195 -238 257 -308 266 -298 16 17 834 1524 834 1536 0 10 -521
775 -544 799 -10 11 -89 -150 -416 -847z"/>
<path d="M6527 8213 c-5 -8 -699 -1285 -784 -1440 -24 -46 -48 -85 -53 -88 -5
-3 -15 4 -23 15 l-15 21 -18 -24 -19 -25 -255 313 c-140 173 -257 314 -260
314 -7 1 -462 -970 -457 -975 9 -9 588 -344 595 -344 4 0 90 153 191 340 102
187 188 340 192 340 3 0 12 -7 19 -15 17 -20 27 -19 35 6 4 11 11 19 15 17 5
-2 171 -201 370 -443 198 -242 366 -439 373 -437 7 2 147 82 313 179 l301 176
198 363 c108 200 201 366 205 369 5 3 15 -4 24 -16 l14 -21 14 21 c7 11 16 21
20 21 4 0 55 -71 114 -157 59 -87 109 -160 110 -162 2 -2 17 2 34 9 l30 12 0
417 c0 241 -4 410 -9 401 -5 -8 -68 -123 -140 -255 -73 -131 -134 -242 -137
-244 -3 -3 -14 5 -23 18 l-19 24 -14 -27 c-11 -22 -17 -25 -25 -14 -6 7 -210
303 -453 658 -243 355 -445 649 -450 653 -4 5 -10 5 -13 0z"/>
<path d="M7318 6518 c-91 -167 -164 -305 -162 -307 1 -1 124 68 273 154 171
100 268 161 264 169 -7 11 -82 122 -156 229 -22 31 -43 57 -47 57 -4 0 -82
-136 -172 -302z"/>
<path d="M5495 6319 c-87 -161 -168 -310 -181 -333 l-23 -41 338 -197 c249
-145 347 -198 371 -198 22 0 83 30 200 98 93 53 168 100 167 104 -4 14 -699
858 -706 858 -4 0 -78 -131 -166 -291z"/>
<path d="M4255 4729 c-75 -12 -173 -67 -211 -116 -60 -79 -78 -143 -78 -278 0
-101 4 -129 23 -177 45 -116 144 -193 281 -218 72 -13 220 -7 310 13 l55 12 3
94 c3 84 1 92 -15 89 -13 -2 -21 -19 -28 -57 -12 -63 -24 -74 -115 -97 -83
-21 -189 -15 -246 14 -55 28 -109 92 -131 156 -28 80 -24 281 7 361 46 120
141 173 290 162 41 -3 98 -13 125 -24 49 -18 50 -20 59 -71 8 -40 14 -52 28
-52 16 0 18 9 18 84 0 84 0 84 -27 90 -120 25 -254 31 -348 15z"/>
<path d="M5740 4480 c-30 -11 -56 -19 -57 -20 -2 0 -3 7 -3 15 0 12 -15 15
-76 15 -66 0 -75 -2 -72 -17 2 -9 14 -20 28 -23 l25 -6 3 -357 2 -356 -32 -9
c-18 -4 -34 -16 -36 -25 -3 -15 10 -17 127 -17 111 0 131 2 131 15 0 17 -7 21
-60 29 l-36 6 -1 103 -1 104 101 -1 c91 -1 107 2 147 24 86 48 126 147 118
290 -8 133 -53 207 -147 238 -48 17 -98 14 -161 -8z m126 -56 c58 -27 78 -80
79 -199 0 -111 -18 -175 -60 -215 -27 -25 -106 -38 -168 -26 l-33 6 0 215 0
215 30 9 c50 15 115 12 152 -5z"/>
<path d="M7770 4487 c-108 -31 -161 -109 -168 -248 -8 -166 43 -260 163 -294
100 -30 267 -4 273 42 3 20 1 21 -35 12 -21 -5 -67 -9 -102 -9 -86 0 -139 25
-172 83 -21 37 -24 54 -24 147 0 87 4 112 21 145 40 77 120 104 214 72 29 -10
36 -19 48 -59 8 -29 19 -48 28 -48 21 0 20 145 -1 154 -36 13 -201 16 -245 3z"/>
<path d="M4810 4475 c0 -8 16 -19 40 -25 l40 -11 0 -224 0 -224 -40 -11 c-24
-6 -40 -17 -40 -25 0 -12 21 -15 120 -15 97 0 120 3 120 14 0 8 -16 20 -35 26
-28 9 -35 17 -35 38 0 22 28 55 130 157 l130 130 0 -157 0 -157 -32 -9 c-18
-4 -34 -16 -36 -25 -3 -15 9 -17 113 -17 104 0 116 2 113 17 -2 9 -14 20 -28
23 l-25 6 0 229 0 229 25 6 c14 3 26 14 28 23 3 15 -9 17 -113 17 -104 0 -116
-2 -113 -17 2 -9 18 -21 36 -25 27 -7 32 -13 32 -40 0 -26 -19 -51 -122 -157
-67 -69 -126 -127 -130 -129 -5 -2 -8 68 -8 156 l0 160 35 12 c19 6 35 18 35
26 0 11 -23 14 -120 14 -99 0 -120 -3 -120 -15z"/>
<path d="M6190 4475 c0 -8 16 -19 40 -25 l40 -11 0 -224 0 -224 -40 -11 c-24
-6 -40 -17 -40 -25 0 -12 21 -15 120 -15 97 0 120 3 120 14 0 8 -16 20 -35 26
-28 9 -35 17 -35 38 0 22 28 55 130 157 l130 130 0 -157 0 -157 -32 -9 c-18
-4 -34 -16 -36 -25 -3 -15 9 -17 113 -17 104 0 116 2 113 17 -2 9 -14 20 -28
23 l-25 6 0 229 0 229 25 6 c14 3 26 14 28 23 3 15 -9 17 -113 17 -104 0 -116
-2 -113 -17 2 -9 18 -21 36 -25 27 -7 32 -13 32 -40 0 -26 -19 -51 -122 -157
-67 -69 -126 -127 -130 -129 -5 -2 -8 68 -8 156 l0 160 35 12 c19 6 35 18 35
26 0 11 -23 14 -120 14 -99 0 -120 -3 -120 -15z"/>
<path d="M6900 4476 c0 -8 12 -21 27 -28 27 -13 45 -52 202 -433 l33 -80 -22
-58 c-29 -78 -85 -137 -131 -137 -42 0 -55 8 -68 43 -17 45 -31 31 -31 -33 l0
-59 36 -7 c47 -9 103 1 134 24 50 37 89 116 211 421 112 281 127 311 152 320
15 6 27 17 27 25 0 13 -16 16 -100 16 -82 0 -100 -3 -100 -15 0 -8 12 -17 28
-21 15 -3 34 -8 43 -10 13 -4 4 -35 -55 -189 -38 -102 -73 -182 -77 -177 -4 4
-38 87 -77 184 l-69 176 44 11 c26 7 43 17 43 26 0 12 -21 15 -125 15 -102 0
-125 -3 -125 -14z"/>
</g>
</svg>
